<svg width="512" height="512" viewBox="0 0 512 512" fill="none" xmlns="http://www.w3.org/2000/svg">
  <defs>
    <linearGradient id="g" x1="80" y1="68" x2="432" y2="444" gradientUnits="userSpaceOnUse">
      <stop stop-color="#A7FFF1"/>
      <stop offset="0.52" stop-color="#42EFF4"/>
      <stop offset="1" stop-color="#21B8FF"/>
    </linearGradient>
    <filter id="s" x="0" y="0" width="512" height="512" filterUnits="userSpaceOnUse" color-interpolation-filters="sRGB">
      <feDropShadow dx="0" dy="20" stdDeviation="22" flood-color="#21B8FF" flood-opacity="0.25"/>
    </filter>
  </defs>
  <rect width="512" height="512" rx="128" fill="#071426"/>
  <g filter="url(#s)">
    <path d="M257.2 112C174.9 112 112 174.9 112 256.3C112 337.6 174.9 400 257.2 400C288 400 316 391.4 339.2 376.5L302.4 323.2C289.3 331.1 273.9 335.6 257.2 335.6C212.1 335.6 178.7 302.7 178.7 256.3C178.7 209.4 212.1 176.4 257.2 176.4C302.7 176.4 335.7 209.4 335.7 256.3C335.7 270 332.9 282.7 327.7 293.8L383.7 374.6H454L401.3 300.2C407.4 286.7 410.8 271.8 410.8 256.3C410.8 174.9 339.5 112 257.2 112Z" fill="url(#g)"/>
    <path d="M336 298H414V353H374L336 298Z" fill="url(#g)"/>
    <rect x="35" y="224" width="35" height="88" rx="13" fill="url(#g)"/>
    <rect x="82" y="244" width="24" height="48" rx="10" fill="url(#g)" opacity="0.86"/>
    <rect x="442" y="224" width="35" height="88" rx="13" fill="url(#g)"/>
    <rect x="406" y="244" width="24" height="48" rx="10" fill="url(#g)" opacity="0.86"/>
  </g>
</svg>
