<svg xmlns="http://www.w3.org/2000/svg" viewBox="0 0 860 420" preserveAspectRatio="xMidYMid slice">
  <defs>
    <radialGradient id="floor" cx="52%" cy="72%" r="70%">
      <stop offset="0" stop-color="#1a2b3d" stop-opacity=".8"/>
      <stop offset="1" stop-color="#07101d" stop-opacity=".1"/>
    </radialGradient>
    <linearGradient id="metal" x1="0" x2="1">
      <stop offset="0" stop-color="#142234"/>
      <stop offset="0.5" stop-color="#263649"/>
      <stop offset="1" stop-color="#0a111c"/>
    </linearGradient>
    <filter id="blur"><feGaussianBlur stdDeviation="1.5"/></filter>
    <filter id="shadow"><feDropShadow dx="0" dy="12" stdDeviation="15" flood-color="#000" flood-opacity=".55"/></filter>
  </defs>
  <rect width="860" height="420" fill="url(#floor)"/>
  <g opacity=".32" filter="url(#blur)">
    <rect x="0" y="310" width="860" height="2" fill="#7ca7be" opacity=".15"/>
    <rect x="0" y="350" width="860" height="2" fill="#7ca7be" opacity=".10"/>
  </g>
  <g filter="url(#shadow)" opacity=".88">
    <path d="M188 220c0-61 47-109 107-109s107 48 107 109c0 28-10 54-26 73h-43c21-18 34-44 34-73 0-43-32-75-72-75s-72 32-72 75c0 29 13 55 34 73h-43c-16-19-26-45-26-73z" fill="#111923"/>
    <path d="M162 282c-16 0-30 14-30 31v42c0 29 24 53 53 53h221c29 0 53-24 53-53v-42c0-17-14-31-31-31H162z" fill="url(#metal)"/>
    <ellipse cx="295" cy="392" rx="124" ry="18" fill="#02070d" opacity=".4"/>
  </g>
  <g transform="translate(424 222) rotate(-5)" filter="url(#shadow)" opacity=".86">
    <rect x="80" y="42" width="235" height="35" rx="12" fill="url(#metal)"/>
    <rect x="16" y="13" width="92" height="92" rx="16" fill="#121b27"/>
    <rect x="285" y="3" width="124" height="112" rx="17" fill="#131d29"/>
    <path d="M296 3h73l40 40v72h-79l-34-34z" fill="#182535" opacity=".95"/>
    <rect x="113" y="51" width="165" height="18" rx="9" fill="#2f4155" opacity=".85"/>
  </g>
</svg>
