<svg xmlns="http://www.w3.org/2000/svg" viewBox="0 0 1200 760" preserveAspectRatio="xMidYMid slice">
  <defs>
    <linearGradient id="bg" x1="0" y1="0" x2="1" y2="1">
      <stop offset="0" stop-color="#123350"/>
      <stop offset="0.46" stop-color="#071a30"/>
      <stop offset="1" stop-color="#020913"/>
    </linearGradient>
    <radialGradient id="glow" cx="56%" cy="28%" r="62%">
      <stop offset="0" stop-color="#35e8ef" stop-opacity="0.32"/>
      <stop offset="0.48" stop-color="#25a6d8" stop-opacity="0.12"/>
      <stop offset="1" stop-color="#000" stop-opacity="0"/>
    </radialGradient>
    <linearGradient id="steel" x1="0" x2="1">
      <stop offset="0" stop-color="#111c2d"/>
      <stop offset="0.3" stop-color="#29415e"/>
      <stop offset="0.58" stop-color="#3a5672"/>
      <stop offset="1" stop-color="#0a1422"/>
    </linearGradient>
    <linearGradient id="plate" x1="0" x2="1">
      <stop offset="0" stop-color="#101b2b"/>
      <stop offset="0.52" stop-color="#273c55"/>
      <stop offset="1" stop-color="#08121f"/>
    </linearGradient>
    <filter id="shadow" x="-20%" y="-20%" width="140%" height="160%">
      <feDropShadow dx="0" dy="28" stdDeviation="22" flood-color="#000" flood-opacity="0.48"/>
    </filter>
    <filter id="blur"><feGaussianBlur stdDeviation="2"/></filter>
  </defs>
  <rect width="1200" height="760" fill="url(#bg)"/>
  <rect width="1200" height="760" fill="url(#glow)"/>
  <g opacity="0.28" fill="none" stroke="#7efbef" stroke-width="2">
    <circle cx="1050" cy="106" r="96" opacity=".34"/>
    <circle cx="1050" cy="106" r="150" opacity=".21"/>
    <circle cx="1050" cy="106" r="210" opacity=".13"/>
  </g>
  <g opacity="0.28">
    <path d="M0 540h1200" stroke="#d7f7ff" stroke-opacity=".13"/>
    <path d="M0 602h1200" stroke="#d7f7ff" stroke-opacity=".10"/>
    <path d="M0 664h1200" stroke="#d7f7ff" stroke-opacity=".07"/>
  </g>

  <g filter="url(#shadow)" transform="translate(54 166)" opacity="1">
    <path d="M260 226c0-86 67-154 151-154s151 68 151 154c0 36-12 70-32 97h-76c34-17 58-54 58-97c0-59-45-107-101-107S309 167 309 226c0 43 24 80 58 97h-76c-20-27-31-61-31-97z" fill="#111a28"/>
    <path d="M206 318h410c38 0 70 31 70 70v54c0 58-47 105-105 105H241c-58 0-105-47-105-105v-54c0-39 31-70 70-70z" fill="url(#steel)"/>
    <path d="M168 452h486c-17 55-67 95-126 95H294c-59 0-109-40-126-95z" fill="#06101d" opacity=".58"/>
    <ellipse cx="410" cy="562" rx="246" ry="34" fill="#000" opacity=".30" filter="url(#blur)"/>
  </g>

  <g filter="url(#shadow)" transform="translate(600 330) rotate(-6)" opacity="1">
    <rect x="118" y="76" width="410" height="42" rx="18" fill="url(#steel)"/>
    <rect x="188" y="88" width="265" height="18" rx="9" fill="#7fa1bd" opacity=".78"/>
    <path d="M0 26c0-20 16-36 36-36h150c20 0 36 16 36 36v150c0 20-16 36-36 36H36c-20 0-36-16-36-36z" fill="url(#plate)"/>
    <path d="M30 18h122l50 50v124H80l-50-50z" fill="#20334a" opacity=".95"/>
    <path d="M502 9c0-21 17-38 38-38h182c21 0 38 17 38 38v182c0 21-17 38-38 38H540c-21 0-38-17-38-38z" fill="url(#plate)"/>
    <path d="M540 9h132l58 58v132H598l-58-58z" fill="#223850" opacity=".96"/>
  </g>
  <rect width="1200" height="760" fill="#020913" opacity=".08"/>
</svg>
