<svg xmlns="http://www.w3.org/2000/svg" viewBox="0 0 260 150" role="img" aria-label="QFit logo">
  <defs>
    <linearGradient id="g" x1="25" y1="0" x2="210" y2="125" gradientUnits="userSpaceOnUse">
      <stop offset="0" stop-color="#7efbef"/>
      <stop offset="0.55" stop-color="#22d6e8"/>
      <stop offset="1" stop-color="#0b7eb8"/>
    </linearGradient>
    <filter id="glow" x="-20%" y="-20%" width="140%" height="140%">
      <feGaussianBlur stdDeviation="4" result="blur"/>
      <feColorMatrix in="blur" type="matrix" values="0 0 0 0 0.1  0 0 0 0 0.9  0 0 0 0 1  0 0 0 .35 0"/>
      <feMerge><feMergeNode/><feMergeNode in="SourceGraphic"/></feMerge>
    </filter>
  </defs>
  <g filter="url(#glow)" fill="url(#g)">
    <rect x="22" y="58" width="14" height="48" rx="4"/>
    <rect x="43" y="45" width="19" height="74" rx="5"/>
    <rect x="69" y="64" width="12" height="35" rx="4" opacity=".75"/>
    <path d="M130 18c-36.5 0-66 29.5-66 66s29.5 66 66 66c12.7 0 24.6-3.6 34.7-9.8l-26.1-31.5h-26l37.8 45.7c-6.4 2.5-13.2 3.8-20.4 3.8-31 0-56.2-25.2-56.2-56.2S99 25.8 130 25.8s56.2 25.2 56.2 56.2c0 12.5-4.1 24-11 33.3l20.1 24.4C208 124.6 216 105.1 216 84c0-36.5-29.5-66-66-66h-20z"/>
    <rect x="194" y="64" width="12" height="35" rx="4" opacity=".75"/>
    <rect x="218" y="45" width="19" height="74" rx="5"/>
    <rect x="244" y="58" width="14" height="48" rx="4"/>
  </g>
</svg>
